#!OML:ASF F:\twosubjects\two\wednesday\Session 1\rory1.ASF
:FULLY-SPECIFIED
:DEGREES
162
root 3.5627 18.301 2.17302 -175.227 -1.12838 174.708
lowerback 2.9131 -1.66946 -7.86676
upperback 1.695 -2.48892 0.340741
thorax 0.469821 -1.34544 4.81771
lowerneck -14.9296 -2.27437 -2.24247
upperneck 17.5322 -2.51315 0.829463
head 7.92342 -1.16216 0.378369
rclavicle 1.95306e-014 1.51076e-014
rhumerus -27.181 29.5532 -67.1692
rradius 79.2998
rwrist 7.09747
rhand -8.17572 38.6851
rfingers 7.12502
rthumb 17.7398 9.47425
lclavicle 1.95306e-014 1.51076e-014
lhumerus -12.074 -19.7938 78.4344
lradius 48.8361
lwrist 4.15053
lhand -24.4745 19.1959
lfingers 7.12502
lthumb 2.0191 49.1661
rfemur -34.1206 3.82457 9.77995
rtibia 50.8707
rfoot -6.80294 -8.88484
rtoes 4.84748
lfemur -4.11662 -1.66708 -31.1141
ltibia 21.5554
lfoot -17.4985 0.412394
ltoes -1.61747
163
root 3.56463 18.3041 2.02573 -174.957 -1.12421 174.739
lowerback 2.75444 -1.73595 -8.01118
upperback 1.61167 -2.56276 0.46259
thorax 0.495904 -1.37981 5.02243
lowerneck -14.8188 -2.29348 -2.39176
upperneck 17.4306 -2.55595 1.06261
head 7.87604 -1.17078 0.47646
rclavicle 2.25124e-014 -1.74931e-014
rhumerus -26.447 29.5205 -66.9736
rradius 78.1925
rwrist 7.33098
rhand -8.38264 39.2283
rfingers 7.12502
rthumb 17.5406 9.99956
lclavicle 2.25124e-014 -1.74931e-014
lhumerus -11.5389 -20.6314 77.9999
lradius 50.3301
lwrist 4.57548
lhand -25.2079 18.6609
lfingers 7.12502
lthumb 1.31075 48.6366
rfemur -34.2623 4.41926 9.5481
rtibia 47.7639
rfoot -6.34757 -9.30714
rtoes 1.29952
lfemur -3.70304 -1.51235 -31.0639
ltibia 21.0748
lfoot -17.418 0.293227
ltoes -1.16277
164
root 3.56251 18.3037 1.87625 -174.692 -1.21139 174.51
lowerback 2.55672 -1.91296 -8.32927
upperback 1.61217 -2.78662 0.5149
thorax 0.659495 -1.50129 5.24897
lowerneck -14.9754 -2.1964 -2.32925
upperneck 17.4136 -2.42886 1.00488
head 7.89418 -1.11422 0.459539
rclavicle 4.5969e-014 5.1684e-015
rhumerus -26.7167 30.2455 -66.6107
rradius 79.5836
rwrist 6.99341
rhand -8.53425 38.5867
rfingers 7.12502
rthumb 17.3947 9.34502
lclavicle 4.5969e-014 5.1684e-015
lhumerus -10.9472 -21.0877 77.4575
lradius 51.6696
lwrist 4.37162
lhand -24.8478 18.447
lfingers 7.12502
lthumb 1.65854 48.4203
rfemur -34.2836 4.98063 8.95271
rtibia 44.5546
rfoot -6.26921 -9.59287
rtoes -0.913058
lfemur -3.1604 -1.28031 -31.3041
ltibia 20.4327
lfoot -17.2164 0.281077
ltoes -3.49561
165
root 3.56144 18.3094 1.72578 -174.481 -1.43074 174.311
lowerback 2.43792 -2.01703 -8.50255
upperback 1.60125 -2.91842 0.480764
thorax 0.742487 -1.57186 5.30597
lowerneck -15.106 -2.26919 -2.16506
upperneck 17.3984 -2.55659 0.933657
head 7.91103 -1.17299 0.393131
rclavicle 5.64548e-014 -1.15295e-014
rhumerus -26.5708 30.2149 -66.4546
rradius 79.8671
rwrist 7.03506
rhand -8.67241 38.4823
rfingers 7.12502
rthumb 17.2618 9.22891
lclavicle 5.64548e-014 -1.15295e-014
lhumerus -10.3315 -22.0411 76.9027
lradius 52.8183
lwrist 3.52195
lhand -25.2276 17.8739
lfingers 7.12502
lthumb 1.29179 47.8497
rfemur -34.1068 5.60749 8.33762
rtibia 41.25
rfoot -6.51131 -9.99136
rtoes 1.85888
lfemur -2.34422 -1.47846 -31.5
ltibia 19.5896
lfoot -17.1681 0.324718
ltoes -3.58025
166
root 3.57061 18.3221 1.57582 -174.266 -1.80841 174.271
lowerback 2.39194 -2.00172 -8.6002
upperback 1.52871 -2.89663 0.429514
thorax 0.691935 -1.55612 5.30719
lowerneck -15.1321 -2.5378 -1.98583
upperneck 17.482 -2.98598 1.03631
head 7.94894 -1.3528 0.348852
rclavicle 5.11871e-015 2.38542e-015
rhumerus -26.7611 29.7122 -66.5149
rradius 79.9938
rwrist 7.03782
rhand -9.18625 38.3073
rfingers 7.12502
rthumb 16.7671 9.01133
lclavicle 5.11871e-015 2.38542e-015
lhumerus -9.48969 -23.194 76.3005
lradius 54.2588
lwrist 4.93812
lhand -25.291 18.4243
lfingers 7.12502
lthumb 1.23053 48.4005
rfemur -33.8163 6.4008 7.88175
rtibia 37.8995
rfoot -7.16231 -10.7947
rtoes 5.72729
lfemur -1.37316 -1.74198 -31.4143
ltibia 18.4872
lfoot -16.8831 0.0491477
ltoes -1.70562
167
root 3.5783 18.3308 1.42324 -173.989 -2.20032 174.204
lowerback 2.33115 -2.04924 -8.74874
upperback 1.44128 -2.95731 0.435913
thorax 0.653144 -1.58174 5.39696
lowerneck -15.2302 -2.67968 -1.86748
upperneck 17.4793 -3.22411 1.10023
head 7.96809 -1.45231 0.322294
rclavicle -3.4191e-014 -1.39149e-014
rhumerus -26.7873 29.2925 -66.545
rradius 79.9068
rwrist 7.13224
rhand -9.59604 38.2283
rfingers 7.12502
rthumb 16.3726 8.89934
lclavicle -3.4191e-014 -1.39149e-014
lhumerus -8.8302 -23.9571 75.8251
lradius 55.516
lwrist 5.43455
lhand -25.5584 18.4133
lfingers 7.12502
lthumb 0.972214 48.3908
rfemur -33.557 7.24748 7.31509
rtibia 34.5409
rfoot -7.65036 -11.7132
rtoes 7.26399
lfemur -0.430551 -1.74706 -31.3396
ltibia 17.2315
lfoot -16.2986 -0.323583
ltoes -0.645161
168
root 3.57734 18.3389 1.26581 -173.665 -2.4205 174.118
lowerback 2.12607 -2.17754 -8.85624
upperback 1.47354 -3.10665 0.529823
thorax 0.837427 -1.66646 5.54474
lowerneck -15.7479 -2.71588 -2.01508
upperneck 17.5668 -3.26447 1.20508
head 8.09428 -1.47332 0.369209
rclavicle 3.97072e-014 3.97569e-015
rhumerus -26.3874 29.2744 -66.2047
rradius 80.0248
rwrist 7.22343
rhand -9.22002 38.2515
rfingers 7.12502
rthumb 16.7346 8.95279
lclavicle 3.97072e-014 3.97569e-015
lhumerus -8.1871 -24.0153 75.4141
lradius 56.6612
lwrist 5.34944
lhand -25.3659 18.001
lfingers 7.12502
lthumb 1.15816 47.9776
rfemur -33.4106 8.02479 6.67662
rtibia 31.2211
rfoot -7.2016 -12.4942
rtoes 6.58772
lfemur 0.423027 -1.77973 -31.3795
ltibia 15.9613
lfoot -15.6802 -0.352321
ltoes -0.734292
169
root 3.57745 18.3537 1.10782 -173.285 -2.39586 174.063
lowerback 1.76553 -2.18466 -8.95336
upperback 1.50586 -3.07819 0.56944
thorax 1.07713 -1.66444 5.62323
lowerneck -16.2913 -2.81326 -2.00442
upperneck 17.8471 -3.39858 1.21026
head 8.28698 -1.53283 0.345193
rclavicle -2.73329e-015 2.78299e-015
rhumerus -26.1106 29.0366 -65.9366
rradius 80.0753
rwrist 7.19664
rhand -8.38482 38.4878
rfingers 7.12502
rthumb 17.5385 9.2589
lclavicle -2.73329e-015 2.78299e-015
lhumerus -7.38078 -24.3853 74.9478
lradius 57.5733
lwrist 5.71614
lhand -25.5629 17.6281
lfingers 7.12502
lthumb 0.967897 47.6057
rfemur -33.4341 9.11014 5.98269
rtibia 28.0201
rfoot -6.7758 -13.4237
rtoes 5.21016
lfemur 1.21286 -1.79103 -31.4381
ltibia 14.614
lfoot -15.0588 0.0160601
ltoes -2.60461
170
root 3.58312 18.3642 0.9456 -173.043 -2.44325 173.953
lowerback 1.44325 -2.21572 -9.09745
upperback 1.46915 -3.08775 0.536275
thorax 1.22812 -1.67508 5.65539
lowerneck -16.27 -2.87183 -1.91335
upperneck 17.8947 -3.49312 1.17711
head 8.29835 -1.57322 0.308129
rclavicle -6.55989e-015 -1.63003e-014
rhumerus -26.1024 28.628 -66.0046
rradius 79.8097
rwrist 7.28362
rhand -8.02046 38.9056
rfingers 7.12502
rthumb 17.8892 9.70833
lclavicle -6.55989e-015 -1.63003e-014
lhumerus -6.88577 -25.0082 74.443
lradius 58.3737
lwrist 6.37952
lhand -26.4582 16.9186
lfingers 7.12502
lthumb 0.10321 46.8983
rfemur -33.2949 10.4033 5.18997
rtibia 25.055
rfoot -6.83425 -14.6652
rtoes 3.36951
lfemur 2.23673 -1.65077 -31.4949
ltibia 13.1488
lfoot -14.3842 0.177533
ltoes -4.84962
171
root 3.58829 18.3654 0.780097 -173.011 -2.72803 173.877
lowerback 1.37063 -2.3717 -9.13409
upperback 1.41866 -3.28894 0.540046
thorax 1.25226 -1.77453 5.67446
lowerneck -16.1109 -2.89426 -2.15455
upperneck 17.9965 -3.50821 1.42484
head 8.31414 -1.56712 0.430821
rclavicle 4.7112e-014 -3.97569e-015
rhumerus -26.4588 28.675 -66.1013
rradius 80.1898
rwrist 7.27187
rhand -8.3326 39.0223
rfingers 7.12502
rthumb 17.5888 9.7979
lclavicle 4.7112e-014 -3.97569e-015
lhumerus -6.76338 -25.2861 73.9972
lradius 59.2256
lwrist 6.59941
lhand -27.1772 16.0635
lfingers 7.12502
lthumb -0.591203 46.0424
rfemur -32.8994 11.6305 4.44417
rtibia 22.3682
rfoot -7.50975 -16.0112
rtoes 3.7265
lfemur 3.54836 -1.55727 -31.4636
ltibia 11.7032
lfoot -13.6822 -0.0285551
ltoes -5.73899
172
root 3.59571 18.3658 0.618671 -172.906 -2.93638 173.828
lowerback 1.32814 -2.40646 -9.18656
upperback 1.3351 -3.33252 0.530463
thorax 1.19893 -1.79032 5.69352
lowerneck -15.9716 -2.97494 -2.29094
upperneck 18.1271 -3.6402 1.72684
head 8.34466 -1.60211 0.540443
rclavicle -2.27608e-014 1.74931e-014
rhumerus -26.852 28.5852 -66.1835
rradius 80.4869
rwrist 7.17751
rhand -8.54808 39.2192
rfingers 7.12502
rthumb 17.3814 9.97633
lclavicle -2.27608e-014 1.74931e-014
lhumerus -6.59281 -25.6035 73.6481
lradius 60.1204
lwrist 6.57032
lhand -27.3347 15.3194
lfingers 7.12502
lthumb -0.743395 45.2979
rfemur -32.7411 12.9423 3.67136
rtibia 20.0249
rfoot -8.7471 -17.2588
rtoes 6.45755
lfemur 4.70961 -1.54291 -31.4036
ltibia 10.3335
lfoot -13.0066 -0.263961
ltoes -4.57884
